PathFileType	4	(X/Y/Z)	Patient4_TMGait_0pt4_03_right_39.trc.trc
DataRate	CameraRate	NumFrames	NumMarkers	Units	OrigDataRate	OrigDataStartFrame	OrigNumFrames
75.268817204301	75.268817204301	5	33	mm	75.268817204301	89	       141
Frame#	Time	Sacral			L.Shoulder			Chest			R.Shoulder			Neck			R.ASIS			L.ASIS			R.Thigh.Superior			R.Thigh.Lateral			R.Thigh.Inferior			R.Patella			L.Thigh.Superior			L.Thigh.Lateral			L.Thigh.Inferior			L.Patella			L.Shank.Superior			L.Shank.Lateral			L.Shank.Inferior			R.Shank.Superior			R.Shank.Lateral			R.Shank.Inferior			R.Heel			R.Midfoot.Superior			R.Midfoot.Lateral			R.Toe			L.Heel			L.Midfoot.Lateral			L.Midfoot.Superior			L.Toe			L.Elbow			L.Wrist			R.Elbow			R.Wrist			
		X1	Y1	Z1	X2	Y2	Z2	X3	Y3	Z3	X4	Y4	Z4	X5	Y5	Z5	X6	Y6	Z6	X7	Y7	Z7	X8	Y8	Z8	X9	Y9	Z9	X10	Y10	Z10	X11	Y11	Z11	X12	Y12	Z12	X13	Y13	Z13	X14	Y14	Z14	X15	Y15	Z15	X16	Y16	Z16	X17	Y17	Z17	X18	Y18	Z18	X19	Y19	Z19	X20	Y20	Z20	X21	Y21	Z21	X22	Y22	Z22	X23	Y23	Z23	X24	Y24	Z24	X25	Y25	Z25	X26	Y26	Z26	X27	Y27	Z27	X28	Y28	Z28	X29	Y29	Z29	X30	Y30	Z30	X31	Y31	Z31	X32	Y32	Z32	X33	Y33	Z33	

89	52.219142857143	875.185746284920	997.255330483615	500.077534778514	1005.158414340327	1425.364276116655	295.540996787779	1136.091193007876	1365.998242310802	438.822959656643	1078.842803448840	1439.191241260696	623.627302295595	1011.024304264593	1490.966625899588	451.046883450836	1116.443662709584	935.954584782607	586.147677209419	1071.231506028395	963.606903459779	316.918459703266	1142.489740577095	727.473789689158	555.545139127613	1063.808967815224	619.142893749012	625.819727684790	1130.758341969783	561.022601937073	541.181884398389	1123.880529247398	457.079118967308	558.164320631460	1144.337189294810	762.344023933606	337.577600222306	1066.124954725000	637.121878639415	281.932837632185	1164.525989280869	569.753189783130	336.027715271149	1172.542654697738	500.558073051473	343.430732596553	1151.293494603818	426.079838098927	334.854848708123	1067.561240426295	306.297656840249	285.633903562661	1132.626313659399	198.033963482876	350.733807899665	1058.336433167062	383.835438140032	569.640515680354	953.345197644121	320.583624440907	639.417408852736	951.478813677423	213.687209724795	583.133921297205	765.171717698398	96.810967740758	568.742743640685	944.109312146531	104.116620135312	595.146101111786	847.004359862008	65.564612087538	638.314797006461	1047.613938792670	36.529460770841	617.110015082307	1018.078380237326	38.082757153944	398.018366078725	1085.754725858001	35.565692155823	311.710413502410	1168.861305344777	99.574335731934	333.392578023363	1295.559987134623	51.763698924904	295.073461871811	951.777229780171	1068.844535170522	199.651001464312	1014.473887883258	815.427098490381	190.975617101299	1156.549626245585	1107.752051462529	758.444596854517	1392.064005264023	1031.690822385641	693.512523941120	
90	52.232428571429	874.667712274347	997.277241414171	496.808560316902	1006.231500551042	1425.737994584937	292.710708244377	1135.857255056697	1366.416888769008	437.157517022756	1076.947567902711	1439.526559251343	621.454609433683	1010.711913986083	1491.388354332808	448.095726190673	1115.397302665460	936.301880552363	584.304978690011	1071.860815092259	964.123861302181	314.862071686712	1146.926916094342	729.742357049712	553.397228928731	1071.470332234043	619.653811387985	623.821015081233	1140.685839377509	562.810383135108	539.476143115492	1135.422103689923	457.365091236283	557.408519651861	1143.626108988165	761.664744152571	335.473332182209	1064.501135660616	637.088073072711	280.140798284805	1162.018141863505	569.032049924199	334.689964720403	1169.513903557111	499.948974591535	342.382458413237	1147.975934372920	425.508944604860	333.863918534141	1063.806738300255	305.997661716388	284.795005371540	1127.998713787408	197.643956542683	350.466137128889	1067.709609258182	384.861399964838	568.863993955808	960.253999838824	325.532700055261	638.331453165362	955.520441979537	218.203426765140	583.187062648948	765.390982860369	109.367448254898	569.000762143221	944.173862369582	106.805752465921	595.623158088598	845.147912798184	73.461728614923	638.408603523111	1042.828608954148	35.722186122747	617.103853438684	1012.607832760242	38.046132963618	397.952291858442	1080.275318276423	35.450868498533	311.636690635568	1163.461595421308	99.325932827291	333.426935708292	1290.136110839889	51.480615395074	295.086623000681	959.484801991205	1068.498113091429	194.941313745190	1028.460107979208	816.728799988420	185.323259199364	1147.703934407930	1106.446231518500	756.991743963693	1378.111413405957	1014.320968723205	692.980739913454	
91	52.245714285714	874.044340657897	997.273545993895	493.623251037216	1007.419059086228	1426.143962288521	290.004367692398	1135.583469936956	1366.808279197511	435.711149141929	1074.875110137131	1439.799051805199	619.452965058732	1010.381972900720	1491.804817776833	445.286139730315	1114.239927017778	936.672801149221	582.651238160329	1072.392052095007	964.623766961195	312.963445633999	1151.581332455476	732.419202136583	551.413364215337	1079.560637170959	620.543941658401	622.068444631867	1151.094260119902	565.117852660287	538.077425633266	1147.473098205424	458.297880378662	556.800634097564	1142.705185399018	760.968392857521	333.760719345583	1062.886156322289	637.121553154176	278.358256985217	1159.376110007051	568.349416493973	333.557915390637	1166.296760932336	499.329680726819	341.406884906723	1144.499623309222	424.955574294102	332.898047171905	1059.957054355099	305.682799466241	283.967935178653	1123.331133114914	197.274876511029	350.202185275929	1077.761605826881	386.397432491098	568.205436220225	968.021396676783	331.019753329225	637.401216897193	960.409521591754	223.374817154177	583.348638239623	766.796675150779	123.214627476027	569.318415697785	944.917427387849	110.127112924182	596.220398490919	844.040163807393	82.448559856619	638.528282825999	1038.122154230734	34.792517041432	617.126523461591	1007.152845565941	38.018981329384	397.878037717854	1074.816282912539	35.353589368424	311.561751471635	1158.091010474680	99.067707532608	333.469846263550	1284.736679848380	51.173019311484	295.115862500276	967.202492794230	1068.426883146679	190.230061406421	1042.797926587732	818.561340172694	179.786939995376	1138.702884349842	1105.087426135979	755.367258505480	1362.818729225376	996.715677786126	692.768346398278	
92	52.259000000000	873.324845253345	997.236666312816	490.541250710317	1008.682980793069	1426.554256367175	287.452956137179	1135.267495663309	1367.160949488189	434.490300673237	1072.655417580259	1439.999729119761	617.638289535473	1010.048095844733	1492.200463730187	442.659062907033	1113.009047268949	937.068061053332	581.180364146349	1072.824541102672	965.104556932799	311.225548179957	1156.337491724365	735.482342047345	549.595727871591	1087.899926138642	621.837257176011	620.550140725013	1161.760187811289	567.961724090491	536.967401764643	1159.828287920633	459.892950899241	556.304745555436	1141.639711197648	760.293851117006	332.362080997681	1061.278804280174	637.210563360240	276.593986206492	1156.662673723851	567.708791575205	332.555799838891	1162.968894568414	498.711248659784	340.472961264056	1140.935241929465	424.420971022347	331.946742415402	1056.059079247561	305.366806152586	283.154801140136	1118.658257921905	196.927284024114	349.935894222125	1088.301217499072	388.460064251474	567.631174488766	976.505524168953	336.978626432327	636.624129047633	966.044938585990	229.143121439458	583.595323654672	769.408376617173	138.107384574778	569.704065694208	946.309254934788	114.091138588989	596.900051593586	843.744549289835	92.399503581590	638.670176975502	1033.573192292808	33.748486733715	617.159320686968	1001.730712757796	38.002219889487	397.794995544885	1069.391390639216	35.276222623757	311.481472234655	1152.757721180613	98.813119357637	333.508792615206	1279.371641168568	50.862396507251	295.144136636123	974.871575678402	1068.603049766683	185.534772652984	1057.460454291368	820.935897183367	174.376181360572	1129.526140426492	1103.634627902575	753.549181385178	1346.131820327754	979.014507471501	692.947793421760	
93	52.272285714286	872.522029809732	997.168334481376	487.576507093607	1009.980849243713	1426.952659913079	285.084976166034	1134.906846237248	1367.474522871331	433.495360273834	1070.320667269596	1440.125626190257	616.023744964230	1009.721572728227	1492.567347264094	440.252956361265	1111.745038204154	937.497718559090	579.881474590081	1073.168764164686	965.564746518066	309.647416861603	1161.072607880580	738.893106076456	547.945673512098	1096.299375784251	623.542995067848	619.246714086747	1172.447409010133	571.337667310753	536.111150909741	1172.278598961007	462.141083860906	555.883379294311	1140.496387245619	759.662822502050	331.176687006342	1059.660214209017	637.334980223567	274.866647426553	1153.928321789994	567.103957715330	331.611550437451	1159.602510479446	498.100403066746	339.556095301792	1137.344109521560	423.903111437561	331.006667369849	1052.147433609859	305.061107236193	282.365774655267	1114.003347605368	196.598266115340	349.666175305476	1099.127496960609	391.044842786051	567.114238942588	985.541164363957	343.319662148772	635.996805451434	972.306017988595	235.416741028489	583.909652364945	773.191778743770	153.707434642877	570.174936787684	948.318356100276	118.657501940954	597.616585963087	844.312377063170	103.100713707452	638.837207320545	1029.303259392506	32.640359084839	617.168457340688	996.347403144613	37.994946113316	397.705322394147	1064.004080422891	35.218648852667	311.395604729546	1147.461304589995	98.571462411994	333.536801572863	1274.041977184566	50.563144784121	295.159645858589	982.438228960455	1069.003734630813	180.879936374521	1072.406651058035	823.870572998793	169.106096972482	1120.152408022113	1102.069740877045	751.521981881802	1328.020896533688	961.391570990961	693.568509502553	
